<?xml version="1.0" standalone="no"?>
<!DOCTYPE svg PUBLIC "-//W3C//DTD SVG 20010904//EN"
 "http://www.w3.org/TR/2001/REC-SVG-20010904/DTD/svg10.dtd">
<svg version="1.0" xmlns="http://www.w3.org/2000/svg"
 width="411.000000pt" height="411.000000pt" viewBox="0 0 411.000000 411.000000"
 preserveAspectRatio="xMidYMid meet">
<metadata>
Created by potrace 1.14, written by Peter Selinger 2001-2017
</metadata>
<g transform="translate(0.000000,411.000000) scale(0.100000,-0.100000)"
fill="#000000" stroke="none">
<path d="M1879 4105 c-2 -2 -29 -6 -59 -9 -67 -7 -108 -13 -180 -28 -30 -6
-59 -12 -65 -14 -137 -27 -374 -121 -540 -213 -94 -53 -260 -172 -339 -243
-11 -10 -23 -18 -28 -18 -4 0 -8 -6 -8 -12 0 -7 -12 -22 -28 -32 -23 -16 -63
-59 -177 -191 -15 -16 -40 -50 -57 -75 -18 -25 -34 -47 -37 -50 -4 -3 -15 -22
-26 -42 -11 -21 -23 -38 -27 -38 -5 0 -8 -6 -8 -14 0 -8 -4 -16 -8 -18 -9 -3
-123 -227 -140 -273 -50 -140 -64 -182 -67 -195 -2 -8 -13 -51 -24 -95 -12
-44 -24 -98 -27 -120 -3 -22 -7 -46 -10 -53 -28 -87 -25 -491 6 -662 5 -30 12
-69 14 -85 11 -63 68 -246 106 -339 84 -207 234 -453 355 -582 81 -87 139
-144 147 -144 5 0 6 -5 3 -10 -3 -6 1 -10 9 -10 9 0 16 -4 16 -9 0 -5 35 -37
78 -70 42 -33 82 -64 87 -69 151 -122 538 -303 692 -323 5 -1 17 -5 29 -9 11
-5 36 -11 55 -14 43 -7 76 -14 97 -20 94 -26 561 -28 652 -2 8 3 33 8 55 11
22 4 45 8 50 9 6 2 24 6 40 10 17 4 54 14 82 22 29 9 58 17 65 18 7 2 22 6 33
10 20 8 33 12 47 15 19 4 171 72 248 111 82 41 274 161 295 184 6 6 30 27 55
46 104 80 220 197 312 315 27 33 51 65 56 70 97 124 264 458 302 604 35 137
50 201 55 231 3 20 7 47 10 60 21 106 28 419 13 545 -37 302 -152 633 -300
858 -21 32 -38 60 -38 63 0 2 -7 12 -14 21 -8 10 -32 41 -53 70 -42 57 -148
178 -201 230 -32 31 -117 105 -184 158 -13 11 -65 46 -169 116 -78 53 -307
161 -416 198 -98 33 -267 75 -348 86 -27 4 -59 10 -70 12 -25 6 -411 13 -416
8z"/>
</g>
</svg>
